<?xml version="1.0" encoding="UTF-8"?>
<svg width="60" height="60" viewBox="0 0 60 60" fill="none" xmlns="http://www.w3.org/2000/svg">
  <circle cx="30" cy="30" r="30" fill="#111111"/>
  <path d="M30 14C36.0751 14 41.4 19.3249 41.4 25.4C41.4 27.9117 40.6117 30.2332 39.2584 32.1283C42.3984 34.4115 44.4 38.1066 44.4 42.2C44.4 43.7463 43.1463 45 41.6 45H18.4C16.8537 45 15.6 43.7463 15.6 42.2C15.6 38.1066 17.6016 34.4115 20.7416 32.1283C19.3883 30.2332 18.6 27.9117 18.6 25.4C18.6 19.3249 23.9249 14 30 14ZM21.6 25.4C21.6 29.6 25.3249 33.4 30 33.4C34.6751 33.4 38.4 29.6 38.4 25.4C38.4 21.2 34.6751 17.4 30 17.4C25.3249 17.4 21.6 21.2 21.6 25.4ZM30 36.4C24.8 36.4 20.4 39.6 19.2 44H40.8C39.6 39.6 35.2 36.4 30 36.4Z" fill="white"/>
</svg>