<svg width="26" height="30" viewBox="0 0 26 30" fill="none" xmlns="http://www.w3.org/2000/svg">
<path d="M13.0938 9.35037C13.0938 12.56 10.4803 15.1656 7.25195 15.1656C4.02364 15.1656 1.41016 12.56 1.41016 9.35037C1.41016 6.14069 4.02364 3.53516 7.25195 3.53516C10.4803 3.53516 13.0938 6.14069 13.0938 9.35037Z" stroke="black"/>
<path d="M20.3306 5.20004C22.6002 7.46962 22.5946 11.16 20.3118 13.4428C18.0291 15.7256 14.3387 15.7312 12.0691 13.4616C9.7995 11.192 9.80512 7.5016 12.0879 5.21884C14.3706 2.93607 18.061 2.93045 20.3306 5.20004Z" stroke="black"/>
<path d="M13.0938 14.8367C13.0938 18.0464 10.4803 20.6519 7.25195 20.6519C4.02364 20.6519 1.41016 18.0464 1.41016 14.8367C1.41016 11.627 4.02364 9.02148 7.25195 9.02148C10.4803 9.02148 13.0938 11.627 13.0938 14.8367Z" stroke="black"/>
<path d="M17.6047 16.2271C19.1738 17.7962 19.1705 20.3485 17.5912 21.9278C16.0119 23.5071 13.4596 23.5103 11.8906 21.9413C10.3215 20.3722 10.3247 17.8199 11.904 16.2406C13.4833 14.6613 16.0356 14.6581 17.6047 16.2271Z" stroke="black"/>
<path d="M13.0938 21.9812C13.0938 25.1909 10.4803 27.7964 7.25195 27.7964C4.02364 27.7964 1.41016 25.1909 1.41016 21.9812C1.41016 18.7716 4.02364 16.166 7.25195 16.166C10.4803 16.166 13.0938 18.7716 13.0938 21.9812Z" stroke="black"/>
<path d="M21.2219 19.8463C22.7909 21.4154 22.7877 23.9676 21.2084 25.5469C19.6291 27.1263 17.0768 27.1295 15.5077 25.5604C13.9387 23.9913 13.9419 21.439 15.5212 19.8597C17.1005 18.2804 19.6528 18.2772 21.2219 19.8463Z" stroke="black"/>
</svg>
